<svg width="31" height="22" viewBox="0 0 31 22" fill="none" xmlns="http://www.w3.org/2000/svg">
    <path
        d="M30.3615 3.44251C30.004 2.09662 28.957 1.03545 27.6292 0.673094C25.2034 0.000152588 15.4999 0.000152588 15.4999 0.000152588C15.4999 0.000152588 5.79652 0.000152588 3.37066 0.647211C2.06836 1.00956 0.995877 2.09662 0.638383 3.44251C0 5.90133 0 11.0002 0 11.0002C0 11.0002 0 16.1249 0.638383 18.5578C0.995877 19.9037 2.04282 20.9649 3.37066 21.3272C5.82205 22.0002 15.4999 22.0002 15.4999 22.0002C15.4999 22.0002 25.2034 22.0002 27.6292 21.3531C28.957 20.9907 30.004 19.9296 30.3615 18.5837C30.9999 16.1249 30.9999 11.026 30.9999 11.026C30.9999 11.026 31.0254 5.90133 30.3615 3.44251Z"
        fill="#FF0000" />
    <ellipse cx="9.06548" cy="5.04518" rx="9.06548" ry="5.04518"
        transform="matrix(0.995012 -0.099755 0.0982387 0.995163 0 1.81851)"
        fill="url(#paint0_radial_6_393)" />
    <ellipse cx="6.4607" cy="3.59555" rx="6.4607" ry="3.59555"
        transform="matrix(0.994991 -0.0999687 0.0980286 0.995184 0.144531 0.934235)"
        fill="url(#paint1_radial_6_393)" fill-opacity="0.7" />
    <ellipse cx="10.8812" cy="4.15165" rx="10.8812" ry="4.15165"
        transform="matrix(0.999608 -0.0280008 0.0272555 0.999629 12.1094 14.1789)"
        fill="url(#paint2_radial_6_393)" fill-opacity="0.7" />
    <ellipse cx="6.02219" cy="4.11001" rx="6.02219" ry="4.11001"
        transform="matrix(0.494947 0.868923 -0.863078 0.50507 25.4727 -1.16391)"
        fill="url(#paint3_radial_6_393)" fill-opacity="0.7" />
    <g filter="url(#filter0_i_6_393)">
        <path d="M12.4103 6.28922V15.7104L20.4794 10.9998L12.4103 6.28922Z" fill="white" />
    </g>
    <defs>
        <filter id="filter0_i_6_393" x="12.4103" y="5.28343" width="8.06915" height="10.427"
            filterUnits="userSpaceOnUse" color-interpolation-filters="sRGB">
            <feFlood flood-opacity="0" result="BackgroundImageFix" />
            <feBlend mode="normal" in="SourceGraphic" in2="BackgroundImageFix" result="shape" />
            <feColorMatrix in="SourceAlpha" type="matrix"
                values="0 0 0 0 0 0 0 0 0 0 0 0 0 0 0 0 0 0 127 0" result="hardAlpha" />
            <feOffset dy="-1.00578" />
            <feGaussianBlur stdDeviation="1.00578" />
            <feComposite in2="hardAlpha" operator="arithmetic" k2="-1" k3="1" />
            <feColorMatrix type="matrix"
                values="0 0 0 0 0.354167 0 0 0 0 0.0354167 0 0 0 0 0.0354167 0 0 0 0.2 0" />
            <feBlend mode="normal" in2="shape" result="effect1_innerShadow_6_393" />
        </filter>
        <radialGradient id="paint0_radial_6_393" cx="0" cy="0" r="1" gradientUnits="userSpaceOnUse"
            gradientTransform="translate(9.06548 5.04518) rotate(90) scale(5.04518 9.06548)">
            <stop stop-color="#FF7425" />
            <stop offset="1" stop-color="#FF7425" stop-opacity="0" />
        </radialGradient>
        <radialGradient id="paint1_radial_6_393" cx="0" cy="0" r="1" gradientUnits="userSpaceOnUse"
            gradientTransform="translate(6.4607 3.59555) rotate(90) scale(3.59555 6.4607)">
            <stop stop-color="#FFCF25" />
            <stop offset="1" stop-color="#FF7425" stop-opacity="0" />
        </radialGradient>
        <radialGradient id="paint2_radial_6_393" cx="0" cy="0" r="1" gradientUnits="userSpaceOnUse"
            gradientTransform="translate(10.8812 4.15165) rotate(90) scale(4.15165 10.8812)">
            <stop stop-color="#CB1D1D" />
            <stop offset="1" stop-color="#CB1D1D" stop-opacity="0" />
        </radialGradient>
        <radialGradient id="paint3_radial_6_393" cx="0" cy="0" r="1" gradientUnits="userSpaceOnUse"
            gradientTransform="translate(6.02219 4.11001) rotate(90) scale(4.11001 6.02219)">
            <stop stop-color="#FF1111" />
            <stop offset="1" stop-color="#FF1111" stop-opacity="0" />
        </radialGradient>
    </defs>
</svg>
    